<svg xmlns="http://www.w3.org/2000/svg" viewBox="0 0 64 64" width="64" height="64" role="img" aria-label="LiveLift"><title>LiveLift</title><g transform="translate(-22.154 -15.590) scale(0.08205)"><path d="M530 248 V812 H430 C350 812 310 770 310 700 V440 C310 415 322 402 342 390 Z" fill="#2A2522"/><path d="M310 760 C310 900 380 962 480 962 H975 L905 848 H520 C400 848 330 815 310 760 Z" fill="#2A2522"/><path d="M700 342 V780 H570 V398 Z" fill="#9E3B2B"/><path d="M520 815 C660 805 800 725 810 553 L733 553 L855 425 L975 553 L912 553 C905 700 800 815 640 818 Z" fill="#9E3B2B"/><path d="M815 228 C910 230 985 300 1000 410" fill="none" stroke="#9E3B2B" stroke-width="36" stroke-linecap="round"/><path d="M818 312 C870 315 915 350 922 405" fill="none" stroke="#9E3B2B" stroke-width="36" stroke-linecap="round"/></g></svg>
