<svg xmlns="http://www.w3.org/2000/svg" viewBox="0 0 132 152" width="132" height="152" role="img" aria-label="Chồng thẻ sản phẩm, thẻ trên cùng được ghim"><title>Chồng thẻ sản phẩm, thẻ trên cùng được ghim</title><g transform="rotate(-9 70 86)"><rect x="30" y="36" width="80" height="100" fill="#2E2722" stroke="#F3ECE1" stroke-width="1.8"/></g><g transform="rotate(-2 62 74)"><rect x="22" y="24" width="80" height="100" fill="#2E2722" stroke="#F3ECE1" stroke-width="1.8"/></g><g transform="rotate(5 54 62)"><rect x="14" y="12" width="80" height="100" fill="#2E2722" stroke="#F3ECE1" stroke-width="3"/></g><g transform="rotate(5 54 62)"><rect x="24" y="22" width="60" height="42" fill="#3D342D"/><g transform="translate(34.2 23.2) scale(0.66)"><path d="M20 14 Q30 -2 40 14 Q30 24 20 14 Z" fill="#D4624A"/><path d="M22 14 Q30 3 38 14 Q30 20 22 14 Z" fill="#2E2722" opacity=".35"/><path d="M20 14 L8 22 L12 34 L18 31 L18 52 L42 52 L42 31 L48 34 L52 22 L40 14 Q30 26 20 14 Z" fill="#D4624A"/><path d="M26 22 V30 M34 22 V30" stroke="#2E2722" stroke-width="1.8" opacity=".7"/><path d="M22 41 H38 V50 H22 Z" fill="none" stroke="#2E2722" stroke-width="1.8" opacity=".5"/></g><circle cx="31" cy="29" r="3.4" fill="#D4624A"/><rect x="24" y="76" width="60" height="4.4" fill="#F3ECE1"/><rect x="24" y="86" width="30" height="4.4" fill="#F3ECE1"/></g><polygon points="42.0,4.0 80.0,4.0 77.8,6.7 80.0,9.3 77.8,12.0 80.0,14.7 77.8,17.3 80.0,20.0 42.0,20.0 44.2,17.3 42.0,14.7 44.2,12.0 42.0,9.3 44.2,6.7" fill="#8F7A58" opacity="0.92" transform="rotate(-3 61.0 12.0)"/></svg>
