<svg xmlns="http://www.w3.org/2000/svg" viewBox="0 0 140 240" width="140" height="240" role="img" aria-label="Điện thoại người dẫn đang livestream"><title>Điện thoại người dẫn đang livestream</title><rect x="4" y="4" width="132" height="232" rx="16" fill="#2A2522"/><rect x="11" y="11" width="118" height="218" rx="10" fill="#E4DACB"/><rect x="11" y="11" width="118" height="70" fill="#CDBEA6"/><g fill="#8A9A7B"><rect x="20" y="24" width="20" height="46"/></g><rect x="46" y="24" width="20" height="46" fill="#C98A6B"/><rect x="72" y="24" width="20" height="46" fill="#7F93AE"/><rect x="98" y="24" width="20" height="46" fill="#C9B48A"/><circle cx="70" cy="104" r="17" fill="#E9CDB6"/><path d="M40 190 Q40 128 70 128 Q100 128 100 190 Z" fill="#FBF9F5"/><path d="M58 138 L70 156 L82 138 Z" fill="#9E3B2B"/><rect x="18" y="18" width="30" height="13" fill="#9E3B2B"/><rect x="24" y="23" width="18" height="3" fill="#FBF9F5"/><rect x="54" y="18" width="30" height="13" fill="#2A2522" opacity=".78"/><rect x="100" y="18" width="22" height="13" fill="#2A2522" opacity=".78"/><rect x="18" y="168" width="64" height="9" fill="#2A2522" opacity=".75"/><rect x="18" y="181" width="48" height="9" fill="#2A2522" opacity=".75"/><rect x="18" y="196" width="104" height="26" fill="#FBF9F5"/><rect x="24" y="202" width="14" height="14" fill="#E4DACB"/><rect x="44" y="203" width="40" height="4" fill="#2A2522"/><rect x="44" y="211" width="24" height="4" fill="#9E3B2B"/><rect x="96" y="203" width="20" height="13" fill="#2A2522"/></svg>
